<?xml version="1.0" encoding="utf-8"?>
<!-- Generator: Adobe Illustrator 16.0.0, SVG Export Plug-In . SVG Version: 6.00 Build 0)  -->
<!DOCTYPE svg PUBLIC "-//W3C//DTD SVG 1.1//EN" "http://www.w3.org/Graphics/SVG/1.1/DTD/svg11.dtd">
<svg version="1.1" id="Layer_1" xmlns="http://www.w3.org/2000/svg" xmlns:xlink="http://www.w3.org/1999/xlink" x="0px" y="0px"
	 width="512px" height="512px" viewBox="0 0 512 512" enable-background="new 0 0 512 512" xml:space="preserve">
<linearGradient id="SVGID_1_" gradientUnits="userSpaceOnUse" x1="258" y1="2.6665" x2="258" y2="513.3335">
	<stop  offset="0" style="stop-color:#FF9700"/>
	<stop  offset="0.2" style="stop-color:#D1224C"/>
	<stop  offset="0.8" style="stop-color:#32127F"/>
	<stop  offset="1" style="stop-color:#32A65D"/>
</linearGradient>
<path fill="url(#SVGID_1_)" d="M258,2.667C116.983,2.667,2.667,116.983,2.667,258c0,141.018,114.317,255.333,255.333,255.333
	c141.018,0,255.333-114.315,255.333-255.333C513.333,116.983,399.018,2.667,258,2.667z"/>
<path fill="#FFFFFF" d="M97.674,162.992c0-9.838,7.976-17.814,17.814-17.814h47.504c9.838,0,17.814,7.976,17.814,17.814
	s-7.977,17.814-17.814,17.814h-47.504C105.65,180.807,97.674,172.83,97.674,162.992z"/>
<path fill="#FFFFFF" d="M97.674,258c0-9.838,7.976-17.814,17.814-17.814h95.008c9.837,0,17.814,7.976,17.814,17.814
	c0,9.837-7.977,17.813-17.814,17.813h-95.008C105.65,275.813,97.674,267.837,97.674,258z"/>
<path fill="#FFFFFF" d="M97.674,353.008c0-9.838,7.976-17.813,17.814-17.813h118.759c9.839,0,17.814,7.976,17.814,17.813
	c0,9.839-7.975,17.814-17.814,17.814H115.488C105.65,370.822,97.674,362.847,97.674,353.008z"/>
<path fill="#FFFFFF" d="M287.689,353.008c0-9.838,7.977-17.813,17.815-17.813h95.007c9.838,0,17.814,7.976,17.814,17.813
	c0,9.839-7.977,17.814-17.814,17.814h-95.007C295.666,370.822,287.689,362.847,287.689,353.008z"/>
<path fill="#FFFFFF" d="M263.938,258c0-9.838,7.976-17.814,17.815-17.814h118.759c9.838,0,17.814,7.976,17.814,17.814
	c0,9.837-7.977,17.813-17.814,17.813H281.753C271.913,275.813,263.938,267.837,263.938,258z"/>
<path fill="#FFFFFF" d="M216.434,162.992c0-9.838,7.977-17.814,17.814-17.814h166.264c9.838,0,17.814,7.976,17.814,17.814
	s-7.977,17.814-17.814,17.814H234.248C224.41,180.807,216.434,172.83,216.434,162.992z"/>
<g>
	<path fill="#FFFFFF" stroke="#FFFFFF" stroke-width="2" stroke-miterlimit="10" d="M97.674,162.992
		c0-9.838,7.976-17.814,17.814-17.814h47.504c9.838,0,17.814,7.976,17.814,17.814s-7.977,17.814-17.814,17.814h-47.504
		C105.65,180.807,97.674,172.83,97.674,162.992z"/>
	<path fill="#FFFFFF" stroke="#FFFFFF" stroke-width="2" stroke-miterlimit="10" d="M115.488,240.186
		c-9.838,0-17.814,7.976-17.814,17.814c0,9.837,7.976,17.813,17.814,17.813h95.008c9.837,0,17.814-7.977,17.814-17.813
		c0-9.838-7.977-17.814-17.814-17.814H115.488z"/>
	<path fill="#FFFFFF" stroke="#FFFFFF" stroke-width="2" stroke-miterlimit="10" d="M97.674,353.008
		c0-9.838,7.976-17.813,17.814-17.813h118.759c9.839,0,17.814,7.976,17.814,17.813c0,9.839-7.975,17.814-17.814,17.814H115.488
		C105.65,370.822,97.674,362.847,97.674,353.008z"/>
	<path fill="#FFFFFF" stroke="#FFFFFF" stroke-width="2" stroke-miterlimit="10" d="M305.505,335.194
		c-9.839,0-17.815,7.976-17.815,17.813c0,9.839,7.977,17.814,17.815,17.814h95.007c9.838,0,17.814-7.976,17.814-17.814
		c0-9.838-7.977-17.813-17.814-17.813H305.505z"/>
	<path fill="#FFFFFF" stroke="#FFFFFF" stroke-width="2" stroke-miterlimit="10" d="M263.938,258
		c0-9.838,7.976-17.814,17.815-17.814h118.759c9.838,0,17.814,7.976,17.814,17.814c0,9.837-7.977,17.813-17.814,17.813H281.753
		C271.913,275.813,263.938,267.837,263.938,258z"/>
	<path fill="#FFFFFF" stroke="#FFFFFF" stroke-width="2" stroke-miterlimit="10" d="M234.248,145.178
		c-9.837,0-17.814,7.976-17.814,17.814s7.977,17.814,17.814,17.814h166.264c9.838,0,17.814-7.977,17.814-17.814
		s-7.977-17.814-17.814-17.814H234.248z"/>
	<path fill="#FFFFFF" stroke="#FFFFFF" stroke-width="2" stroke-miterlimit="10" d="M2.667,258
		C2.667,116.983,116.983,2.667,258,2.667c141.018,0,255.333,114.317,255.333,255.333c0,141.018-114.315,255.333-255.333,255.333
		C116.983,513.333,2.667,399.018,2.667,258z M258,38.294C136.661,38.294,38.294,136.66,38.294,258
		c0,121.339,98.366,219.705,219.706,219.705c121.339,0,219.705-98.366,219.705-219.705C477.705,136.66,379.339,38.294,258,38.294z"
		/>
</g>
</svg>
