<?xml version="1.0" encoding="utf-8"?>
<!-- Generator: Adobe Illustrator 16.0.0, SVG Export Plug-In . SVG Version: 6.00 Build 0)  -->
<!DOCTYPE svg PUBLIC "-//W3C//DTD SVG 1.1//EN" "http://www.w3.org/Graphics/SVG/1.1/DTD/svg11.dtd">
<svg version="1.1" id="Layer_1" xmlns="http://www.w3.org/2000/svg" xmlns:xlink="http://www.w3.org/1999/xlink" x="0px" y="0px"
	 width="512px" height="512px" viewBox="0 0 512 512" enable-background="new 0 0 512 512" xml:space="preserve">
<linearGradient id="SVGID_1_" gradientUnits="userSpaceOnUse" x1="341.3203" y1="343.4189" x2="341.3202" y2="830.4199" gradientTransform="matrix(1 0 0 1 -83.3203 -328.9199)">
	<stop  offset="0" style="stop-color:#FF9700"/>
	<stop  offset="0.2" style="stop-color:#D1224C"/>
	<stop  offset="0.5688" style="stop-color:#32127F"/>
</linearGradient>
<path fill="url(#SVGID_1_)" d="M258,14.5C123.518,14.5,14.5,123.518,14.5,258c0,134.482,109.019,243.5,243.5,243.5
	c134.482,0,243.5-109.018,243.5-243.5C501.5,123.518,392.482,14.5,258,14.5z"/>
<path fill="#FFFFFF" d="M97.674,162.992c0-9.838,7.976-17.814,17.814-17.814h47.504c9.838,0,17.814,7.976,17.814,17.814
	c0,9.838-7.977,17.814-17.814,17.814h-47.504C105.65,180.807,97.674,172.83,97.674,162.992z"/>
<g id="Layer_2_1_">
	<path fill="#079E81" d="M38.466,501.5"/>
	<linearGradient id="SVGID_2_" gradientUnits="userSpaceOnUse" x1="49.3228" y1="348.75" x2="455.8223" y2="348.75">
		<stop  offset="0" style="stop-color:#00997C"/>
		<stop  offset="1" style="stop-color:#005948"/>
	</linearGradient>
	<polygon fill="url(#SVGID_2_)" points="49.323,382.5 120.323,285.5 132.5,285.5 168.629,326 248.323,201 260.5,201 322.322,299 
		365.73,255.369 455.822,361.5 369.322,476.5 216.133,496.5 72,415 	"/>
</g>
<g id="Layer_2">
	
		<linearGradient id="SVGID_3_" gradientUnits="userSpaceOnUse" x1="92.3032" y1="-153.46" x2="92.3032" y2="-153.46" gradientTransform="matrix(1 0 0 -1 -41.6602 348.04)">
		<stop  offset="0" style="stop-color:#FF9700"/>
		<stop  offset="0.2" style="stop-color:#D1224C"/>
		<stop  offset="0.4398" style="stop-color:#32127F"/>
	</linearGradient>
	<path fill="url(#SVGID_3_)" d="M50.643,501.5"/>
	<linearGradient id="SVGID_4_" gradientUnits="userSpaceOnUse" x1="189.6426" y1="241.9102" x2="331.1494" y2="487.0072">
		<stop  offset="0" style="stop-color:#00D3AF"/>
		<stop  offset="1" style="stop-color:#005948"/>
	</linearGradient>
	<polygon fill="url(#SVGID_4_)" points="61.5,382.5 132.5,285.5 180.806,326 260.5,201 334.5,299 377.907,255.369 468,361.5 
		371,464 228.31,496.5 84.5,417.5 	"/>
</g>
<path fill="#FFFFFF" d="M97.674,258c0-9.838,7.976-17.814,17.814-17.814h95.008c9.837,0,17.814,7.976,17.814,17.814
	c0,9.837-7.977,17.813-17.814,17.813h-95.008C105.65,275.813,97.674,267.837,97.674,258z"/>
<path fill="#FFFFFF" d="M97.674,353.008c0-9.838,7.976-17.813,17.814-17.813h118.759c9.839,0,17.814,7.976,17.814,17.813
	c0,9.84-7.975,17.814-17.814,17.814H115.488C105.65,370.822,97.674,362.848,97.674,353.008z"/>
<path fill="#FFFFFF" d="M287.689,353.008c0-9.838,7.977-17.813,17.813-17.813h95.007c9.838,0,17.814,7.976,17.814,17.813
	c0,9.84-7.979,17.814-17.814,17.814h-95.007C295.666,370.822,287.689,362.848,287.689,353.008z"/>
<path fill="#FFFFFF" d="M263.938,258c0-9.838,7.978-17.814,17.815-17.814h118.759c9.838,0,17.814,7.976,17.814,17.814
	c0,9.837-7.979,17.813-17.814,17.813H281.753C271.913,275.813,263.938,267.837,263.938,258z"/>
<path fill="#FFFFFF" d="M216.434,162.992c0-9.838,7.977-17.814,17.814-17.814h166.264c9.838,0,17.814,7.976,17.814,17.814
	c0,9.838-7.979,17.814-17.814,17.814H234.248C224.41,180.807,216.434,172.83,216.434,162.992z"/>
<g>
	<path fill="#FFFFFF" d="M97.674,162.992c0-9.838,7.976-17.814,17.814-17.814h47.504c9.838,0,17.814,7.976,17.814,17.814
		c0,9.838-7.977,17.814-17.814,17.814h-47.504C105.65,180.807,97.674,172.83,97.674,162.992z"/>
	<path fill="#FFFFFF" d="M115.488,240.186c-9.838,0-17.814,7.976-17.814,17.814c0,9.837,7.976,17.813,17.814,17.813h95.008
		c9.837,0,17.814-7.977,17.814-17.813c0-9.838-7.977-17.814-17.814-17.814H115.488z"/>
	<path fill="#FFFFFF" d="M97.674,353.008c0-9.838,7.976-17.813,17.814-17.813h118.759c9.839,0,17.814,7.976,17.814,17.813
		c0,9.84-7.975,17.814-17.814,17.814H115.488C105.65,370.822,97.674,362.848,97.674,353.008z"/>
	<path fill="#FFFFFF" d="M305.505,335.193c-9.839,0-17.815,7.977-17.815,17.813c0,9.839,7.979,17.813,17.815,17.813h95.007
		c9.838,0,17.814-7.976,17.814-17.813s-7.979-17.813-17.814-17.813H305.505z"/>
	<path fill="#FFFFFF" d="M263.938,258c0-9.838,7.978-17.814,17.815-17.814h118.759c9.838,0,17.814,7.976,17.814,17.814
		c0,9.837-7.979,17.813-17.814,17.813H281.753C271.913,275.813,263.938,267.837,263.938,258z"/>
	<path fill="#FFFFFF" d="M234.248,145.178c-9.837,0-17.814,7.976-17.814,17.814c0,9.838,7.977,17.814,17.814,17.814h166.264
		c9.838,0,17.814-7.977,17.814-17.814s-7.979-17.814-17.814-17.814H234.248z"/>
	<path fill="#FFFFFF" d="M9.5,258C9.5,120.757,120.757,9.5,258,9.5c137.244,0,248.5,111.258,248.5,248.5
		c0,137.244-111.256,248.5-248.5,248.5C120.757,506.5,9.5,395.244,9.5,258z M258,44.173C139.908,44.173,44.173,139.907,44.173,258
		c0,24.504,4.122,48.045,11.71,69.969c21.09,60.933,68.96,109.365,129.532,131.222c22.663,8.178,47.103,12.635,72.584,12.635
		c118.092,0,213.825-95.733,213.825-213.825C471.825,139.907,376.092,44.173,258,44.173z"/>
</g>
<image display="none" overflow="visible" enable-background="new    " width="224" height="213" xlink:href="103AE6F6.jpg"  transform="matrix(2.4522 0 0 2.3363 -30.6387 27.0029)">
</image>
</svg>
