<?xml version="1.0" encoding="utf-8"?>
<!-- Generator: Adobe Illustrator 16.0.0, SVG Export Plug-In . SVG Version: 6.00 Build 0)  -->
<!DOCTYPE svg PUBLIC "-//W3C//DTD SVG 1.1//EN" "http://www.w3.org/Graphics/SVG/1.1/DTD/svg11.dtd">
<svg version="1.1" id="Layer_1" xmlns="http://www.w3.org/2000/svg" xmlns:xlink="http://www.w3.org/1999/xlink" x="0px" y="0px"
	 width="100px" height="100px" viewBox="0 0 100 100" enable-background="new 0 0 100 100" xml:space="preserve">
<g>
	<path fill="#0EB7D6" d="M50.065,94.868c-0.352-0.214-0.673-0.456-0.945-0.716C38.054,83.608,30.066,74.055,23.982,64.083
		c-3.298-5.413-5.539-10.407-6.848-15.263c-0.794-2.942-1.157-5.512-1.078-7.64l0.003-0.204C15.994,23.228,28.41,7.911,44.94,5.35
		c1.856-0.287,3.698-0.433,5.473-0.433c8.091,0,15.211,2.894,21.766,8.848c6.62,6.027,10.407,13.608,11.576,23.173
		c0.61,5.043-0.169,10.198-2.383,15.756c-1.966,4.944-4.676,9.86-8.532,15.478c-3.433,4.987-7.366,9.97-12.379,15.677
		c-3.244,3.662-6.631,7.199-9.805,10.474l-0.133,0.143C50.392,94.612,50.239,94.747,50.065,94.868z"/>
	<path fill="#FFFFFF" d="M50.414,9.917c6.792,0,12.811,2.469,18.395,7.541c5.701,5.19,8.967,11.761,9.982,20.076
		c0.509,4.196-0.167,8.549-2.066,13.317c-1.822,4.584-4.366,9.188-7.999,14.481c-3.321,4.825-7.141,9.661-11.992,15.185
		c-2.253,2.544-4.58,5.029-6.856,7.408c-9.357-9.209-16.277-17.679-21.624-26.441c-3.05-5.006-5.108-9.574-6.293-13.969
		c-0.826-3.058-0.95-5.033-0.908-6.151l0.007-0.203l0-0.203c-0.056-15.297,10.54-28.481,24.644-30.667
		C47.309,10.043,48.894,9.917,50.414,9.917 M50.414-0.083c-2.037,0-4.117,0.164-6.239,0.492
		C24.934,3.39,10.986,21.104,11.059,40.995c-0.106,2.864,0.401,5.993,1.247,9.127c1.604,5.948,4.268,11.412,7.408,16.565
		c7.154,11.725,16.174,21.764,25.957,31.084c0.804,0.767,1.757,1.41,2.778,1.902c0.532,0.275,1.062,0.408,1.596,0.408
		c0.495,0,0.994-0.114,1.5-0.334c1.021-0.456,1.947-1.104,2.702-1.945c3.405-3.513,6.759-7.027,9.972-10.654
		c4.53-5.158,8.834-10.465,12.744-16.146c3.542-5.159,6.719-10.58,9.055-16.457c2.33-5.848,3.469-11.874,2.701-18.213
		c-1.277-10.458-5.546-19.32-13.178-26.268C68.133,3.335,59.724-0.083,50.414-0.083L50.414-0.083z"/>
</g>
</svg>
