<?xml version="1.0" encoding="utf-8"?>
<!-- Generator: Adobe Illustrator 16.0.0, SVG Export Plug-In . SVG Version: 6.00 Build 0)  -->
<!DOCTYPE svg PUBLIC "-//W3C//DTD SVG 1.1//EN" "http://www.w3.org/Graphics/SVG/1.1/DTD/svg11.dtd">
<svg version="1.1" id="open" xmlns="http://www.w3.org/2000/svg" xmlns:xlink="http://www.w3.org/1999/xlink" x="0px" y="0px"
	 width="96px" height="96px" viewBox="0 0 96 96" enable-background="new 0 0 96 96" xml:space="preserve">
<path fill="#ECF0F1" d="M88,48c-2.209,0-4,1.791-4,4v28c0,2.21-1.79,4-4,4H16c-2.21,0-4-1.79-4-4V16c0-2.21,1.79-4,4-4h28
	c2.209,0,4-1.791,4-4s-1.791-4-4-4H16C9.373,4,4,9.373,4,16v64c0,6.627,5.373,12,12,12h64c6.627,0,12-5.373,12-12V52
	C92,49.791,90.209,48,88,48z"/>
<path fill="#ECF0F1" d="M91.996,7.958c-0.003-0.249-0.025-0.498-0.075-0.742C91.898,7.104,91.855,7,91.824,6.891
	c-0.04-0.142-0.074-0.285-0.131-0.423c-0.051-0.122-0.12-0.231-0.182-0.346c-0.063-0.115-0.113-0.234-0.188-0.344
	c-0.12-0.179-0.262-0.342-0.407-0.499c-0.032-0.035-0.056-0.075-0.089-0.108c-0.031-0.031-0.066-0.051-0.1-0.081
	c-0.16-0.15-0.326-0.293-0.51-0.416c-0.107-0.072-0.226-0.123-0.339-0.184c-0.116-0.063-0.228-0.133-0.351-0.184
	c-0.139-0.058-0.282-0.091-0.426-0.132c-0.107-0.031-0.211-0.073-0.321-0.095C88.525,4.027,88.262,4,87.999,4H64
	c-2.209,0-4,1.791-4,4s1.791,4,4,4h14.343l-32.77,32.77c-1.562,1.562-1.562,4.095,0,5.656c1.562,1.563,4.095,1.563,5.655,0
	L84,17.656V32c0,2.209,1.791,4,4,4s4-1.791,4-4V8C92,7.986,91.996,7.973,91.996,7.958z"/>
</svg>
