<?xml version="1.0" encoding="utf-8"?>
<!-- Generator: Adobe Illustrator 16.0.0, SVG Export Plug-In . SVG Version: 6.00 Build 0)  -->
<!DOCTYPE svg PUBLIC "-//W3C//DTD SVG 1.1//EN" "http://www.w3.org/Graphics/SVG/1.1/DTD/svg11.dtd">
<svg version="1.1" id="Layer_1" xmlns:svgjs="http://svgjs.com/svgjs"
	 xmlns="http://www.w3.org/2000/svg" xmlns:xlink="http://www.w3.org/1999/xlink" x="0px" y="0px" width="512px" height="512px"
	 viewBox="0 0 512 512" enable-background="new 0 0 512 512" xml:space="preserve">
<g>
	<g>
		<g>
			<path fill="#BD1958" d="M76.618,480.137c-24.711,0-46.845-12.712-59.208-34.006c-12.5-21.528-12.55-47.366-0.135-69.115
				l179.46-310.657c12.296-21.617,34.463-34.496,59.324-34.496c24.866,0,47.065,12.882,59.383,34.46L494.836,377.05
				c12.301,21.282,12.215,46.86-0.229,68.425c-12.524,21.704-34.867,34.662-59.767,34.662H76.618z M255.993,354.089
				c-20.16,0-36.561,16.401-36.561,36.562c0,20.159,16.401,36.561,36.561,36.561c9.771,0,19.383-4.213,26.371-11.558
				c6.515-6.846,9.902-15.464,9.563-24.305c0.292-9.866-3.273-19.168-10.063-26.224
				C275.118,358.111,265.688,354.089,255.993,354.089z M220.712,219.996c0.949,17.25,1.925,34.34,2.901,51.433
				c0.973,17.035,1.945,34.07,2.892,51.263c1.013,16.071,13.413,27.689,29.487,27.689c15.938,0,28.615-12.18,29.487-28.33
				l0.012-0.216v-0.216c0-6.811,0-13.243,0.602-20.058l0.019-0.247c0.632-11.057,1.29-22.087,1.948-33.117
				c0.659-11.049,1.318-22.099,1.952-33.175l0.005-0.102c0.309-6.946,0.808-14.099,1.291-21.017
				c0.502-7.176,1.021-14.597,1.344-21.987l0.008-0.175v-0.175c0-6.955-1.023-12.373-3.316-17.566
				c-6.146-13.498-18.97-21.831-33.506-21.831c-2.958,0-5.941,0.354-8.867,1.051l-0.168,0.04l-0.166,0.047
				c-16.975,4.831-27.942,20.096-27.942,38.89v0.325l0.026,0.324c0.688,8.457,1.293,17.13,1.878,25.519L220.712,219.996z"/>
			<path fill="#FFFFFF" d="M256.059,39.864c21.958,0,41.56,11.374,52.435,30.426l0.02,0.034l0.02,0.034l179.379,310.699
				c10.852,18.774,10.764,41.361-0.233,60.42c-11.078,19.198-30.831,30.66-52.838,30.66H76.618
				c-21.827,0-41.374-11.224-52.29-30.022c-11.045-19.023-11.092-41.859-0.126-61.097l179.46-310.657l0.027-0.046l0.026-0.046
				C214.544,51.229,234.112,39.864,256.059,39.864 M212.728,220.496c0.95,17.249,1.941,34.615,2.9,51.411
				c0.956,16.74,1.944,34.051,2.89,51.226l0.003,0.063l0.004,0.063c0.754,11.959,6.804,22.162,15.837,28.44
				c-13.667,7.62-22.931,22.224-22.931,38.951c0,24.57,19.99,44.561,44.561,44.561c11.95,0,23.675-5.118,32.167-14.043
				c7.952-8.356,12.115-18.933,11.771-29.853c0.284-11.934-4.069-23.18-12.301-31.737c-3.039-3.159-6.525-5.822-10.309-7.925
				c9.236-6.465,15.49-17.023,16.146-29.171l0.023-0.432v-0.432c0-6.917,0-12.891,0.571-19.354l0.021-0.247l0.014-0.248
				c0.632-11.048,1.302-22.264,1.948-33.111c0.648-10.862,1.318-22.096,1.952-33.18l0.006-0.102l0.005-0.102
				c0.304-6.844,0.777-13.63,1.279-20.814c0.505-7.227,1.027-14.7,1.355-22.194l0.016-0.35v-0.351
				c0-5.042-0.415-12.684-3.999-20.798l-0.037-0.083l-0.037-0.083c-7.424-16.304-23.037-26.433-40.75-26.433
				c-3.582,0-7.189,0.427-10.721,1.27l-0.336,0.08l-0.333,0.095c-20.504,5.835-33.752,24.121-33.752,46.584v0.65l0.053,0.648
				c0.685,8.416,1.289,17.072,1.872,25.444L212.728,220.496 M256.059,23.864c-25.834,0-51.655,12.831-66.251,38.494L10.327,373.05
				c-29.298,51.325,7.167,115.087,66.291,115.087h358.223c59.125,0,96.223-64.395,66.924-115.087L322.39,62.357
				C307.74,36.695,281.894,23.864,256.059,23.864L256.059,23.864z M255.993,342.381c-11.698,0-20.762-8.432-21.5-20.129
				c-1.897-34.463-3.9-68.294-5.797-102.757c-0.632-9.063-1.265-18.232-2.002-27.296c0-14.966,8.432-27.296,22.132-31.196
				c2.353-0.561,4.704-0.833,7.011-0.833c11.133-0.001,21.299,6.326,26.188,17.063c2.002,4.532,2.635,9.064,2.635,14.333
				c-0.633,14.438-2.003,28.771-2.635,42.999c-1.266,22.132-2.635,44.159-3.9,66.292c-0.633,7.166-0.633,13.7-0.633,20.762
				C276.86,333.317,267.691,342.381,255.993,342.381L255.993,342.381z M255.993,419.211c-15.598,0-28.561-12.963-28.561-28.561
				s12.963-28.562,28.561-28.562s28.562,12.964,27.929,29.299C284.66,406.248,270.959,419.211,255.993,419.211L255.993,419.211z"/>
		</g>
	</g>
</g>
</svg>
